<svg width="40" xmlns="http://www.w3.org/2000/svg" height="40" id="screenshot-5ee8a690-cde7-8043-8006-5ace37dbe60b" viewBox="0 0 40 40" xmlns:xlink="http://www.w3.org/1999/xlink" fill="none" version="1.1"><g id="shape-5ee8a690-cde7-8043-8006-5ace37dbe60b"><defs><clipPath id="frame-clip-5ee8a690-cde7-8043-8006-5ace37dbe60b-render-1" class="frame-clip frame-clip-def"><rect rx="20" ry="20" x="0" y="0" width="40" height="40" transform="matrix(1.000000, 0.000000, 0.000000, 1.000000, 0.000000, 0.000000)"/></clipPath></defs><g class="frame-container-wrapper"><g class="frame-container-blur"><g class="frame-container-shadows"><g clip-path="url(#frame-clip-5ee8a690-cde7-8043-8006-5ace37dbe60b-render-1)" fill="none"><g class="fills" id="fills-5ee8a690-cde7-8043-8006-5ace37dbe60b"><rect width="40" height="40" class="frame-background" x="0" transform="matrix(1.000000, 0.000000, 0.000000, 1.000000, 0.000000, 0.000000)" style="fill: rgb(38, 38, 38); fill-opacity: 1;" ry="20" rx="20" y="0"/></g><g class="frame-children"><g id="shape-5ee8a690-cde7-8043-8006-5ace37dbe60e"><g class="fills" id="fills-5ee8a690-cde7-8043-8006-5ace37dbe60e"><path d="M22.813,12.125C21.318,12.125,19.900,12.785,18.938,13.928C17.976,15.072,17.568,16.582,17.824,18.055C17.874,18.347,17.800,18.592,17.659,18.734L12.784,23.608C12.362,24.030,12.125,24.602,12.125,25.199L12.125,27.313C12.125,27.623,12.377,27.875,12.688,27.875L15.500,27.875C15.811,27.875,16.063,27.623,16.063,27.313L16.063,26.188L17.188,26.188C17.498,26.188,17.750,25.936,17.750,25.625L17.750,24.500L18.875,24.500C19.024,24.500,19.167,24.441,19.273,24.335L21.266,22.342C21.409,22.200,21.654,22.126,21.946,22.176C23.829,22.501,25.734,21.737,26.872,20.202C28.010,18.667,28.186,16.621,27.328,14.914C26.470,13.207,24.724,12.128,22.813,12.125ZZM22.813,14.375C22.502,14.375,22.250,14.627,22.250,14.938C22.250,15.248,22.502,15.500,22.813,15.500C23.744,15.500,24.500,16.256,24.500,17.188C24.500,17.498,24.752,17.750,25.063,17.750C25.373,17.750,25.625,17.498,25.625,17.188C25.625,15.634,24.366,14.375,22.813,14.375ZZ" fill-rule="evenodd" clip-rule="evenodd" style="fill: rgb(250, 250, 250); fill-opacity: 1;"/></g></g></g></g></g></g></g></g></svg>